<svg xmlns="http://www.w3.org/2000/svg" height="800" width="1200" viewBox="-177.97335 -43.33325 1542.4357 259.9995"><defs><clipPath clipPathUnits="userSpaceOnUse" id="a"><path d="M2102.92 562.199c-116.26 0-174.38-44.875-174.38-134.582 0-78.101 41.11-117.144 123.31-117.144 31.54 0 65.58 6.215 102.13 18.699 36.53 12.441 73.49 30.719 110.86 54.82v155.774c-56.47 14.961-110.45 22.433-161.92 22.433m17.44 342.699c143.65 0 215.46-61.91 215.46-185.695V278.078c0-12.476-6.22-18.699-18.66-18.699h-26.15c-12.48 0-19.13 6.223-19.94 18.699l-4.98 53.578c-71.43-57.316-146.16-85.996-224.2-85.996-57.31 0-102.77 16.41-136.39 49.238-33.64 32.793-50.45 76.629-50.45 131.469 0 60.625 20.56 108.414 61.65 143.293 41.11 34.914 97.8 52.332 170.03 52.332 26.58 0 55.62-2.484 87.18-7.457 31.54-4.984 61.85-12.047 90.93-21.195v104.668c0 50.687-12.06 87.043-36.12 109.055-24.1 22.003-63.95 33.027-119.58 33.027-51.47 0-105.87-8.309-163.16-24.926-9.14-2.496-16.4-4.773-21.79-6.863-5.43-2.078-9.77-3.098-13.08-3.098-9.98 0-14.95 5.395-14.95 16.192v19.933c0 12.477 5.38 20.758 16.2 24.922 31.54 12.484 65.39 22.012 101.49 28.664 36.15 6.652 71.62 9.984 106.51 9.984" clip-rule="evenodd"/></clipPath><clipPath clipPathUnits="userSpaceOnUse" id="b"><path d="M3222.67 904.902c57.28 0 100.88-16.011 130.78-48 29.87-31.98 44.83-79.109 44.83-141.433V278.078c0-12.476-6.25-18.699-18.69-18.699h-33.64c-12.44 0-18.67 6.223-18.67 18.699v407.488c0 54.821-9.35 94.282-28.04 118.395-18.69 24.09-49.18 36.133-91.54 36.133-79.71 0-154.87-26.176-225.44-78.512 2.49-19.945 3.74-39.48 3.74-58.566V278.078c0-12.476-6.23-18.699-18.7-18.699h-33.61c-12.45 0-18.69 6.223-18.69 18.699v407.488c0 54.821-9.35 94.282-28.02 118.395-18.68 24.09-49.2 36.133-91.54 36.133-77.24 0-151.13-25.36-221.71-76.028V278.078c0-12.476-6.25-18.699-18.68-18.699h-33.63c-12.46 0-18.68 6.223-18.68 18.699V867.5c0 12.473 6.22 18.707 18.68 18.707h24.91c12.44 0 19.51-6.234 21.15-18.707l5.01-49.848c37.36 27.414 76.38 48.809 117.06 64.18 40.69 15.371 80.98 23.07 120.82 23.07 78.03 0 130.35-32.019 156.93-95.961 39.87 31.551 81.6 55.461 125.19 71.653 43.61 16.199 86.98 24.308 130.18 24.308" clip-rule="evenodd"/></clipPath><clipPath clipPathUnits="userSpaceOnUse" id="c"><path d="M3773.17 562.199c-116.25 0-174.38-44.875-174.38-134.582 0-78.101 41.11-117.144 123.32-117.144 31.53 0 65.58 6.215 102.12 18.699 36.54 12.441 73.49 30.719 110.87 54.82v155.774c-56.48 14.961-110.46 22.433-161.93 22.433m17.44 342.699c143.65 0 215.47-61.91 215.47-185.695V278.078c0-12.476-6.23-18.699-18.67-18.699h-26.15c-12.47 0-19.12 6.223-19.94 18.699l-4.97 53.578c-71.44-57.316-146.16-85.996-224.21-85.996-57.31 0-102.76 16.41-136.38 49.238-33.65 32.793-50.46 76.629-50.46 131.469 0 60.625 20.56 108.414 61.66 143.293 41.11 34.914 97.79 52.332 170.02 52.332 26.58 0 55.63-2.484 87.18-7.457 31.55-4.984 61.86-12.047 90.94-21.195v104.668c0 50.687-12.07 87.043-36.14 109.055-24.09 22.003-63.94 33.027-119.57 33.027-51.47 0-105.87-8.309-163.16-24.926-9.14-2.496-16.39-4.773-21.78-6.863-5.44-2.078-9.77-3.098-13.09-3.098-9.97 0-14.95 5.395-14.95 16.192v19.933c0 12.477 5.39 20.758 16.2 24.922 31.55 12.484 65.4 22.012 101.5 28.664 36.14 6.652 71.62 9.984 106.5 9.984" clip-rule="evenodd"/></clipPath><clipPath clipPathUnits="userSpaceOnUse" id="d"><path d="M4601.45 302.996v-24.918c0-12.476-6.22-18.699-18.69-18.699h-438.42c-12.47 0-18.69 6.223-18.69 18.699v26.168c0 8.277 1.05 14.942 3.13 19.945 2.05 4.985 5.99 10.778 11.84 17.426l378.63 482.27h-362.46c-12.45 0-18.7 6.242-18.7 18.695V867.5c0 12.477 6.25 18.707 18.7 18.707h423.48c12.47 0 18.69-6.23 18.69-18.707v-26.164c0-6.652-1.07-12.887-3.12-18.699-2.08-5.821-6.43-12.446-13.08-19.926l-379.88-481.035h379.88c12.47 0 18.69-6.223 18.69-18.68" clip-rule="evenodd"/></clipPath><clipPath clipPathUnits="userSpaceOnUse" id="e"><path d="M4967.63 305.488c143.64 0 215.48 89.309 215.48 267.914 0 177.789-71.84 266.688-215.48 266.688-143.66 0-215.47-88.899-215.47-266.688 0-178.605 71.81-267.914 215.47-267.914m0-64.797c-90.5 0-161.31 28.848-212.37 86.602-51.06 57.734-76.59 139.754-76.59 246.109 0 106.348 25.53 188.176 76.59 245.493 51.06 57.339 121.87 86.003 212.37 86.003 90.49 0 161.3-28.664 212.36-86.003 51.07-57.317 76.61-139.145 76.61-245.493 0-106.355-25.54-188.375-76.61-246.109-51.06-57.754-121.87-86.602-212.36-86.602" clip-rule="evenodd"/></clipPath><clipPath clipPathUnits="userSpaceOnUse" id="f"><path d="M5722.42 904.902c61.42 0 107.92-16.011 139.51-48 31.54-31.98 47.31-79.109 47.31-141.433V278.078c0-12.476-6.22-18.699-18.66-18.699h-33.65c-12.45 0-18.66 6.223-18.66 18.699v407.488c0 54.821-10.42 94.282-31.17 118.395-20.74 24.09-53.98 36.133-99.64 36.133-44 0-85.93-6.871-125.8-20.567-39.84-13.711-78.89-33.457-117.07-59.195V278.078c0-12.476-6.25-18.699-18.68-18.699h-33.62c-12.46 0-18.69 6.223-18.69 18.699V867.5c0 12.473 6.23 18.707 18.69 18.707h24.91c12.44 0 19.5-6.234 21.14-18.707l5.01-53.582c39.85 29.07 82.2 51.504 127.05 67.305 44.81 15.781 88.83 23.679 132.02 23.679" clip-rule="evenodd"/></clipPath><clipPath clipPathUnits="userSpaceOnUse" id="g"><path d="M8665.76 562.199c-116.25 0-174.38-44.875-174.38-134.582 0-78.101 41.12-117.144 123.32-117.144 31.53 0 65.58 6.215 102.13 18.699 36.54 12.441 73.49 30.719 110.87 54.82v155.774c-56.48 14.961-110.46 22.433-161.94 22.433zm17.45 342.699c143.65 0 215.46-61.91 215.46-185.695V278.078c0-12.476-6.23-18.699-18.67-18.699h-26.15c-12.47 0-19.12 6.223-19.93 18.699l-4.98 53.578c-71.43-57.316-146.16-85.996-224.19-85.996-57.32 0-102.77 16.41-136.4 49.238-33.65 32.793-50.46 76.629-50.46 131.469 0 60.625 20.58 108.414 61.66 143.293 41.11 34.914 97.78 52.332 170.03 52.332 26.56 0 55.62-2.484 87.18-7.457 31.54-4.984 61.86-12.047 90.94-21.195v104.668c0 50.687-12.06 87.043-36.14 109.055-24.1 22.003-63.94 33.027-119.57 33.027-51.48 0-105.87-8.309-163.16-24.926-9.14-2.496-16.41-4.773-21.79-6.863-5.44-2.078-9.77-3.098-13.07-3.098-9.99 0-14.97 5.395-14.97 16.192v19.933c0 12.477 5.39 20.758 16.21 24.922 31.54 12.484 65.39 22.012 101.5 28.664 36.13 6.652 71.61 9.984 106.5 9.984zm-604.96-368.875l-180.61-262.921c-6.65-9.172-15.36-13.723-26.15-13.723h-34.87c-10.82 0-16.2 4.551-16.2 13.723 0 3.296 2.89 8.718 8.71 16.179l213 296.59-194.31 271.668c-4.98 7.473-7.47 12.445-7.47 14.941 0 9.149 5.39 13.723 16.18 13.723h38.62c10.79 0 19.51-4.574 26.16-13.723l163.18-231.789 163.15 231.789c6.62 9.149 14.96 13.723 24.91 13.723h33.62c10.8 0 16.2-4.574 16.2-13.723 0-3.335-2.48-8.707-7.47-16.187l-191.82-265.441 213.01-301.571c4.98-7.461 7.46-12.883 7.46-16.179 0-9.172-5.42-13.723-16.21-13.723h-38.58c-9.98 0-18.29 4.551-24.92 13.723zm-575.23 305.305c-62.26 0-111.48-18.265-147.59-54.82-36.13-36.563-57.92-90.149-65.38-160.746 32.37-8.332 64.56-14.563 96.52-18.699 31.94-4.165 64.14-6.223 96.51-6.223 62.29 0 107.95 9.121 137.03 27.406 29.05 18.277 43.59 47.359 43.59 87.223 0 83.922-53.56 125.859-160.68 125.859zm158.19-514.652c10.79 3.304 18.69 6 23.67 8.105 4.98 2.059 9.54 3.098 13.7 3.098 9.97 0 14.94-5.414 14.94-16.207v-17.43c0-13.312-4.56-22.023-13.69-26.164-59.81-24.918-123.31-37.398-190.58-37.398-95.48 0-168.37 27.621-218.59 82.879-50.25 55.23-75.34 136.019-75.34 242.367 0 52.344 6.63 99.504 19.9 141.441 13.28 41.949 32.58 77.684 57.92 107.188 25.32 29.472 56.26 51.906 92.79 67.273 36.55 15.371 77.65 23.07 123.32 23.07 72.24 0 128.08-16.636 167.52-49.843 39.44-33.262 59.17-79.754 59.17-139.586 0-58.996-20.97-102.395-62.89-130.231-41.94-27.812-106.93-41.746-194.94-41.746-31.57 0-63.34 1.887-95.27 5.613-31.98 3.735-63.75 10.168-95.31 19.317 0-89.707 18.89-155.965 56.68-198.75 37.79-42.82 94.46-64.184 170.02-64.184 49 0 97.98 7.043 146.98 21.188zM6982.9 1162.85c0 12.45 6.22 18.69 18.69 18.69h33.62c12.44 0 18.68-6.24 18.68-18.69V367.793c0-18.277 3.52-31.152 10.6-38.621 7.04-7.5 19.71-11.238 37.99-11.238 4.97 0 10.59.421 16.81 1.25 6.22.839 11.4 1.25 15.56 1.25 11.61 0 17.45-5.817 17.45-17.442V279.32c0-9.98-5.41-16.211-16.2-18.691-4.98-1.66-12.26-2.899-21.79-3.738-9.58-.809-18.07-1.25-25.55-1.25-33.21 0-59.17 9.757-77.85 29.308-18.67 19.485-28.01 46.707-28.01 81.594zm-397.33-600.651c-116.25 0-174.38-44.875-174.38-134.582 0-78.101 41.12-117.144 123.32-117.144 31.53 0 65.59 6.215 102.12 18.699 36.55 12.441 73.49 30.719 110.87 54.82v155.774c-56.47 14.961-110.46 22.433-161.93 22.433zm17.44 342.699c143.66 0 215.46-61.91 215.46-185.695V278.078c0-12.476-6.21-18.699-18.65-18.699h-26.17c-12.46 0-19.11 6.223-19.93 18.699l-4.97 53.578c-71.44-57.316-146.17-85.996-224.2-85.996-57.31 0-102.77 16.41-136.39 49.238-33.64 32.793-50.45 76.629-50.45 131.469 0 60.625 20.56 108.414 61.65 143.293 41.12 34.914 97.79 52.332 170.03 52.332 26.56 0 55.61-2.484 87.18-7.457 31.54-4.984 61.85-12.047 90.93-21.195v104.668c0 50.687-12.06 87.043-36.14 109.055-24.09 22.003-63.94 33.027-119.58 33.027-51.46 0-105.85-8.309-163.14-24.926-9.15-2.496-16.41-4.773-21.78-6.863-5.45-2.078-9.79-3.098-13.09-3.098-9.98 0-14.96 5.395-14.96 16.192v19.933c0 12.477 5.39 20.758 16.21 24.922 31.54 12.484 65.39 22.012 101.5 28.664 36.13 6.652 71.6 9.984 106.49 9.984z" clip-rule="evenodd"/></clipPath><clipPath clipPathUnits="userSpaceOnUse" id="h"><path d="M649.672 1300C290.871 1300 0 1008.98 0 649.996 0 320.398 245.207 48.141 563.055 5.762v130.976c0 36.934-23.282 70.121-58.274 81.871-183.39 61.641-314.586 237.012-309.754 442.356 5.883 249.984 209.418 446.535 459.336 444.015 249.004-2.52 450.087-205.257 450.087-454.984 0-5.691-.14-11.355-.35-16.988-.05-1.262-.09-2.535-.14-3.801-.24-5.234-.56-10.457-.97-15.648-.12-1.653-.29-3.301-.44-4.95a425.46 425.46 0 00-1.1-10.82c-.46-4.082-.99-8.141-1.56-12.18-.25-1.847-.5-3.699-.78-5.531C1043.43 213.121 565.727 6.878 563.105 5.75A655.982 655.982 0 01649.672 0c358.808 0 649.678 291.012 649.678 649.996S1008.48 1300 649.672 1300" clip-rule="evenodd"/></clipPath></defs><path d="M280.39 98.373c-15.502 0-23.251 5.984-23.251 17.945 0 10.413 5.481 15.619 16.441 15.619 4.205 0 8.744-.829 13.617-2.493 4.871-1.66 9.799-4.096 14.782-7.31v-20.77c-7.53-1.994-14.727-2.99-21.59-2.99m2.326-45.694c19.153 0 28.728 8.255 28.728 24.76v58.816c0 1.664-.83 2.493-2.488 2.493h-3.487c-1.664 0-2.55-.83-2.659-2.493l-.664-7.143c-9.524 7.642-19.488 11.466-29.893 11.466-7.641 0-13.703-2.188-18.185-6.565-4.486-4.373-6.727-10.218-6.727-17.53 0-8.083 2.741-14.455 8.22-19.105 5.481-4.656 13.04-6.978 22.67-6.978 3.545 0 7.417.331 11.625.994a84.08 84.08 0 0112.124 2.826V80.266c0-6.759-1.608-11.606-4.816-14.541-3.214-2.934-8.527-4.404-15.944-4.404-6.863 0-14.116 1.108-21.755 3.324-1.219.333-2.187.636-2.905.915-.724.277-1.303.413-1.744.413-1.331 0-1.994-.72-1.994-2.159v-2.658c0-1.663.718-2.767 2.16-3.323 4.206-1.664 8.719-2.935 13.532-3.822 4.82-.886 9.55-1.33 14.202-1.33" fill="#3f3b3c" fill-rule="evenodd"/><g clip-path="url(#a)" transform="matrix(.13333 0 0 -.13333 0 173.333)"><path d="M1756.41 147.02h678.05v856.52h-678.05V147.02" fill="#3f3b3c"/></g><path d="M429.69 52.68c7.637 0 13.45 2.135 17.437 6.4 3.982 4.264 5.977 10.548 5.977 18.857v58.32c0 1.663-.833 2.492-2.492 2.492h-4.485c-1.659 0-2.49-.83-2.49-2.493V81.925c0-7.31-1.246-12.571-3.738-15.786-2.492-3.212-6.558-4.818-12.206-4.818-10.628 0-20.649 3.49-30.058 10.468a63.04 63.04 0 01.498 7.809v56.658c0 1.664-.83 2.493-2.493 2.493h-4.481c-1.66 0-2.492-.83-2.492-2.493V81.925c0-7.31-1.247-12.571-3.736-15.786-2.491-3.212-6.56-4.818-12.206-4.818-10.298 0-20.15 3.381-29.561 10.137v64.798c0 1.664-.833 2.493-2.49 2.493h-4.485c-1.661 0-2.49-.83-2.49-2.493v-78.59c0-1.662.829-2.494 2.49-2.494h3.322c1.658 0 2.601.832 2.82 2.495l.668 6.646c4.981-3.655 10.184-6.508 15.608-8.557 5.425-2.05 10.797-3.076 16.109-3.076 10.404 0 17.38 4.269 20.924 12.795 5.316-4.207 10.88-7.395 16.692-9.554 5.815-2.16 11.597-3.241 17.357-3.241" fill="#3f3b3c" fill-rule="evenodd"/><g clip-path="url(#b)" transform="matrix(.13333 0 0 -.13333 0 173.333)"><path d="M2404.1 160.738h1092.82v842.802H2404.1V160.738" fill="#3f3b3c"/></g><path d="M503.09 98.373c-15.5 0-23.251 5.984-23.251 17.945 0 10.413 5.481 15.619 16.442 15.619 4.204 0 8.744-.829 13.616-2.493 4.872-1.66 9.799-4.096 14.783-7.31v-20.77c-7.53-1.994-14.728-2.99-21.59-2.99m2.325-45.694c19.153 0 28.729 8.255 28.729 24.76v58.816c0 1.664-.83 2.493-2.49 2.493h-3.486c-1.663 0-2.55-.83-2.659-2.493l-.662-7.143c-9.526 7.642-19.488 11.466-29.895 11.466-7.641 0-13.701-2.188-18.184-6.565-4.487-4.373-6.728-10.218-6.728-17.53 0-8.083 2.741-14.455 8.221-19.105 5.482-4.656 13.039-6.978 22.67-6.978 3.544 0 7.417.331 11.624.994a84.057 84.057 0 0112.125 2.826V80.266c0-6.759-1.61-11.606-4.819-14.541-3.212-2.934-8.525-4.404-15.942-4.404-6.863 0-14.116 1.108-21.755 3.324-1.219.333-2.185.636-2.904.915-.725.277-1.303.413-1.745.413-1.33 0-1.994-.72-1.994-2.159v-2.658c0-1.663.719-2.767 2.16-3.323 4.207-1.664 8.72-2.935 13.534-3.822 4.818-.886 9.549-1.33 14.2-1.33" fill="#3f3b3c" fill-rule="evenodd"/><g clip-path="url(#c)" transform="matrix(.13333 0 0 -.13333 0 173.333)"><path d="M3426.66 147.02h678.06v856.52h-678.06V147.02" fill="#3f3b3c"/></g><path d="M613.527 132.934v3.322c0 1.664-.83 2.493-2.492 2.493h-58.456c-1.663 0-2.492-.83-2.492-2.493v-3.489c0-1.103.14-1.992.417-2.66.273-.664.799-1.436 1.579-2.323l50.484-64.302h-48.328c-1.66 0-2.494-.833-2.494-2.493v-3.322c0-1.664.834-2.495 2.494-2.495h56.464c1.662 0 2.492.831 2.492 2.495v3.488c0 .887-.143 1.718-.416 2.493-.278.777-.858 1.66-1.744 2.657l-50.651 64.138h50.65c1.663 0 2.493.83 2.493 2.49" fill="#3f3b3c" fill-rule="evenodd"/><g clip-path="url(#d)" transform="matrix(.13333 0 0 -.13333 0 173.333)"><path d="M4027.01 160.738h673.08v824.11h-673.08v-824.11" fill="#3f3b3c"/></g><path d="M662.35 132.602c19.153 0 28.731-11.908 28.731-35.722 0-23.705-9.578-35.559-28.73-35.559-19.155 0-28.73 11.854-28.73 35.559 0 23.814 9.575 35.722 28.73 35.722m0 8.64c-12.067 0-21.508-3.847-28.316-11.548-6.808-7.698-10.212-18.634-10.212-32.814s3.404-25.09 10.212-32.733c6.808-7.645 16.249-11.467 28.316-11.467 12.065 0 21.506 3.822 28.314 11.467 6.81 7.643 10.215 18.553 10.215 32.733 0 14.18-3.405 25.116-10.215 32.814-6.808 7.7-16.249 11.547-28.314 11.547" fill="#3f3b3c" fill-rule="evenodd"/><g clip-path="url(#e)" transform="matrix(.13333 0 0 -.13333 0 173.333)"><path d="M4580.03 142.051h775.21v861.489h-775.21V142.051" fill="#3f3b3c"/></g><path d="M762.99 52.68c8.189 0 14.389 2.135 18.6 6.4 4.206 4.264 6.309 10.548 6.309 18.857v58.32c0 1.663-.83 2.492-2.488 2.492h-4.487c-1.66 0-2.488-.83-2.488-2.493V81.925c0-7.31-1.39-12.571-4.156-15.786-2.765-3.212-7.197-4.818-13.285-4.818-5.867 0-11.458.916-16.774 2.742-5.312 1.828-10.518 4.461-15.609 7.893v64.3c0 1.664-.833 2.493-2.49 2.493h-4.483c-1.662 0-2.492-.83-2.492-2.493v-78.59c0-1.662.83-2.494 2.492-2.494h3.321c1.659 0 2.6.832 2.819 2.495l.668 7.144c5.313-3.876 10.96-6.867 16.94-8.974 5.974-2.104 11.844-3.157 17.602-3.157" fill="#3f3b3c" fill-rule="evenodd"/><g clip-path="url(#f)" transform="matrix(.13333 0 0 -.13333 0 173.333)"><path d="M5294.96 160.738h712.92v842.802h-712.92V160.738" fill="#3f3b3c"/></g><path d="M1155.435 98.373c-15.5 0-23.251 5.984-23.251 17.945 0 10.413 5.483 15.619 16.443 15.619 4.204 0 8.744-.829 13.617-2.493 4.872-1.66 9.799-4.096 14.783-7.31v-20.77c-7.531-1.994-14.728-2.99-21.592-2.99zm2.326-45.693c19.154 0 28.728 8.255 28.728 24.76v58.816c0 1.664-.83 2.493-2.489 2.493h-3.487c-1.662 0-2.549-.83-2.657-2.493l-.664-7.143c-9.524 7.642-19.488 11.466-29.892 11.466-7.643 0-13.703-2.188-18.187-6.565-4.486-4.373-6.728-10.218-6.728-17.53 0-8.083 2.744-14.455 8.222-19.105 5.481-4.656 13.037-6.978 22.67-6.978 3.542 0 7.416.331 11.624.994a84.099 84.099 0 0112.126 2.826V80.266c0-6.759-1.608-11.606-4.819-14.541-3.213-2.934-8.525-4.404-15.943-4.404-6.864 0-14.116 1.108-21.754 3.324-1.219.333-2.188.636-2.906.915-.725.277-1.302.413-1.742.413-1.332 0-1.996-.72-1.996-2.159v-2.658c0-1.663.718-2.767 2.161-3.323 4.205-1.664 8.719-2.935 13.533-3.822 4.818-.886 9.548-1.33 14.2-1.33zm-80.661 49.184l-24.081 35.056c-.887 1.223-2.048 1.83-3.487 1.83h-4.65c-1.442 0-2.16-.607-2.16-1.83 0-.44.386-1.163 1.162-2.157l28.4-39.546-25.908-36.222c-.664-.997-.996-1.66-.996-1.992 0-1.22.719-1.83 2.157-1.83h5.15c1.438 0 2.601.61 3.488 1.83l21.757 30.905 21.753-30.905c.883-1.22 1.995-1.83 3.322-1.83h4.482c1.44 0 2.16.61 2.16 1.83 0 .444-.33 1.16-.996 2.158l-25.576 35.392 28.402 40.21c.664.994.994 1.717.994 2.157 0 1.223-.722 1.83-2.161 1.83h-5.144c-1.33 0-2.439-.607-3.323-1.83zm-76.697-40.708c-8.302 0-14.864 2.436-19.679 7.31-4.817 4.875-7.723 12.02-8.717 21.432a106.389 106.389 0 0012.869 2.494c4.259.555 8.552.83 12.868.83 8.305 0 14.393-1.217 18.27-3.655 3.874-2.437 5.813-6.314 5.813-11.63 0-11.19-7.142-16.78-21.424-16.78zm21.092 68.62c1.438-.44 2.492-.8 3.156-1.08.664-.275 1.272-.413 1.826-.413 1.33 0 1.992.722 1.992 2.16v2.325c0 1.775-.608 2.936-1.825 3.488-7.975 3.323-16.441 4.987-25.41 4.987-12.731 0-22.45-3.683-29.146-11.05-6.7-7.365-10.045-18.137-10.045-32.316 0-6.98.884-13.268 2.653-18.86 1.77-5.592 4.344-10.357 7.723-14.291 3.376-3.93 7.501-6.92 12.372-8.97 4.873-2.05 10.353-3.076 16.442-3.076 9.632 0 17.078 2.218 22.336 6.646 5.259 4.435 7.89 10.634 7.89 18.611 0 7.867-2.796 13.653-8.386 17.365-5.592 3.708-14.257 5.566-25.992 5.566-4.209 0-8.445-.252-12.702-.749a78.12 78.12 0 01-12.708-2.575c0 11.96 2.518 20.795 7.557 26.5 5.039 5.71 12.595 8.558 22.67 8.558 6.533 0 13.063-.94 19.597-2.825zm-90.442-111.49c0-1.66.83-2.491 2.492-2.491h4.483c1.659 0 2.49.832 2.49 2.492v106.007c0 2.437.47 4.154 1.414 5.15.939 1 2.628 1.498 5.065 1.498.663 0 1.412-.056 2.242-.167.829-.111 1.52-.166 2.074-.166 1.548 0 2.327.775 2.327 2.325v3.157c0 1.33-.721 2.161-2.16 2.492-.664.221-1.635.386-2.905.498-1.278.108-2.41.167-3.407.167-4.428 0-7.89-1.301-10.38-3.908-2.49-2.598-3.735-6.227-3.735-10.88zm-52.977 80.087c-15.5 0-23.25 5.984-23.25 17.945 0 10.413 5.482 15.619 16.442 15.619 4.204 0 8.745-.829 13.616-2.493 4.873-1.66 9.799-4.096 14.783-7.31v-20.77c-7.53-1.994-14.728-2.99-21.591-2.99zm2.325-45.693c19.155 0 28.728 8.255 28.728 24.76v58.816c0 1.664-.828 2.493-2.486 2.493h-3.49c-1.661 0-2.548-.83-2.657-2.493l-.663-7.143c-9.525 7.642-19.489 11.466-29.893 11.466-7.641 0-13.703-2.188-18.185-6.565-4.486-4.373-6.727-10.218-6.727-17.53 0-8.083 2.741-14.455 8.22-19.105 5.483-4.656 13.039-6.978 22.67-6.978 3.542 0 7.415.331 11.625.994a84.08 84.08 0 0112.124 2.826V80.266c0-6.759-1.608-11.606-4.819-14.541-3.212-2.934-8.525-4.404-15.944-4.404-6.861 0-14.113 1.108-21.752 3.324-1.22.333-2.188.636-2.904.915-.727.277-1.305.413-1.745.413-1.331 0-1.995-.72-1.995-2.159v-2.658c0-1.663.719-2.767 2.161-3.323 4.206-1.664 8.719-2.935 13.534-3.822 4.817-.886 9.546-1.33 14.198-1.33" fill="#3f3b3c" fill-rule="evenodd"/><g clip-path="url(#g)" transform="matrix(.13333 0 0 -.13333 0 173.333)"><path d="M6239.07 142.039h2758.24V1280.17H6239.07V142.039" fill="#3f3b3c"/></g><path d="M86.623 0C38.783 0 0 38.803 0 86.667c0 43.947 32.694 80.248 75.074 85.898v-17.463c0-4.925-3.104-9.35-7.77-10.917-24.452-8.218-41.945-31.601-41.3-58.98.784-33.332 27.922-59.538 61.244-59.202 33.2.336 60.012 27.367 60.012 60.664 0 .759-.019 1.514-.047 2.265l-.018.507a63.395 63.395 0 01-.13 2.086c-.016.22-.038.44-.058.66a56.728 56.728 0 01-.355 3.067c-.033.246-.067.493-.104.738-7.424 48.927-71.118 76.426-71.467 76.577 3.777.502 7.629.766 11.542.766 47.841 0 86.624-38.801 86.624-86.666C173.247 38.803 134.464 0 86.623 0" fill="#5fcaf4" fill-rule="evenodd"/><g clip-path="url(#h)" transform="matrix(.13333 0 0 -.13333 0 173.333)"><path d="M-98.64-98.64h1496.63v1497.28H-98.64V-98.64" fill="#5fcaf4"/></g></svg>