<svg width="40" height="40" viewBox="0 0 40 40" fill="none" xmlns="http://www.w3.org/2000/svg">
<path fill-rule="evenodd" clip-rule="evenodd" d="M19.995 0H20.005C31.0325 0 40 8.9725 40 20C40 31.0275 31.0325 40 20.005 40C15.9375 40 12.165 38.79 9.0025 36.695L1.315 39.1525L3.8075 31.7225C1.41 28.43 0 24.375 0 20C0 8.97 8.9675 0 19.995 0ZM27.7175 31.0646C29.245 30.7346 31.16 29.6046 31.6425 28.2421C32.125 26.8771 32.125 25.7146 31.985 25.4671C31.8719 25.2708 31.6046 25.1421 31.2056 24.9499C31.1017 24.8999 30.9889 24.8456 30.8675 24.7846C30.28 24.4921 27.4225 23.0796 26.8825 22.8921C26.3525 22.6921 25.8475 22.7621 25.4475 23.3271C25.3714 23.4336 25.2955 23.5404 25.22 23.6465C24.7375 24.3252 24.272 24.9799 23.885 25.3971C23.5325 25.7721 22.9575 25.8196 22.475 25.6196C22.4224 25.5977 22.3621 25.5734 22.2946 25.5461C21.5306 25.2375 19.8361 24.5532 17.785 22.7271C16.055 21.1871 14.88 19.2696 14.54 18.6946C14.2062 18.1178 14.4941 17.7796 14.7602 17.467C14.7652 17.4612 14.7701 17.4554 14.775 17.4496C14.9466 17.2373 15.1131 17.0606 15.2804 16.8829C15.4008 16.7551 15.5216 16.6269 15.645 16.4846C15.6633 16.4635 15.6812 16.443 15.6985 16.4231C15.9606 16.1217 16.1167 15.9423 16.2925 15.5671C16.4925 15.1796 16.35 14.7796 16.2075 14.4846C16.1095 14.278 15.5038 12.8086 14.9839 11.5471C14.7614 11.0073 14.5546 10.5055 14.41 10.1571C14.0225 9.22964 13.7275 9.19464 13.14 9.16964C13.122 9.16874 13.1038 9.16782 13.0855 9.16689C12.8998 9.15749 12.6952 9.14714 12.47 9.14714C11.705 9.14714 10.9075 9.37214 10.425 9.86464C10.4081 9.88185 10.3906 9.89973 10.3723 9.91828C9.75505 10.5461 8.38 11.9445 8.38 14.7321C8.38 17.5252 10.3618 20.2282 10.7284 20.7283C10.7385 20.7421 10.7474 20.7542 10.755 20.7646C10.7771 20.7936 10.8187 20.8538 10.8792 20.9415C11.6279 22.0257 15.2746 27.3068 20.7125 29.5596C25.3075 31.4646 26.6725 31.2871 27.7175 31.0646Z" fill="white"/>
</svg>
